<svg xmlns="http://www.w3.org/2000/svg" width="160" height="29.309" viewBox="0 0 160 29.309">
  <g id="TVS_Motor_Company-Logo.wine" transform="translate(0 0)">
    <path id="Path_3464" data-name="Path 3464" d="M1.332,31.944H16.565l1.172-4.527H14.061l3.675-15.073h2.5l-.213,2.5H25.3l2.13-7.936H2.077L0,14.847H5.486L6.6,12.29H9.321L5.7,27.417H2.557Zm40.16,0H31.638L30.253,11.438H28.229L29.4,6.911H42.45l-1.172,4.527H39.041l-.053,12.836L46.5,11.438h-2.5l1.438-4.527H57.2Zm34.141-17.63a17.2,17.2,0,0,1,1.811-7.031c-4.421-.8-9.214-1.119-13.582,0a11,11,0,0,0-6.391,4.368,6.19,6.19,0,0,0,.746,7.67,11.774,11.774,0,0,0,3.515,2.29c1.012.479,2.77,1.225,3.036,2.4.746,2.983-4.048,3.249-5.912,2.663V24.327H53.848L51.931,31.3a29.744,29.744,0,0,0,13.688.479A12.7,12.7,0,0,0,72.6,27.576c1.491-1.864,2.344-5.326.746-7.35A10.737,10.737,0,0,0,70.2,17.563a37.007,37.007,0,0,1-3.515-1.917,1.865,1.865,0,0,1,.107-3.3c1.065-.692,2.823-.373,3.995-.16L71,14.261h4.634Z" transform="translate(0 -3.066)" fill="#253c80"/>
    <path id="Path_3465" data-name="Path 3465" d="M222.86,3.792a9.81,9.81,0,0,0-6.178-.213,14.189,14.189,0,0,0-5.22,2.983,26.623,26.623,0,0,1-5.326,3.409c-1.971.852-4.208,1.758-6.338.905a7.294,7.294,0,0,0,4.314-1.119c1.012-.639,2.77-1.971,3.142-3.2H205.5a11.83,11.83,0,0,1,4.634-3.089l-.852-1.012A14.263,14.263,0,0,1,217,.01a11.816,11.816,0,0,1,3.888.479,7.231,7.231,0,0,1,3.3,1.971ZM189.145,9.384a7.308,7.308,0,0,0-2.13.266c-.692.213-1.332.479-2.024.746-1.278.533-2.5,1.225-3.728,1.864a7.1,7.1,0,0,1-1.758.692,3.92,3.92,0,0,1-2.077-.16,7.251,7.251,0,0,1-1.7-1.119,17.626,17.626,0,0,0-1.6-1.332c-.586-.373-1.172-.639-1.758-1.012.266,0,1.651-.053,1.278-.639a2.566,2.566,0,0,0-1.651-.8A20.156,20.156,0,0,0,168,7.626a5.629,5.629,0,0,1,3.835-1.438A7.174,7.174,0,0,1,175.51,7.52c.586.373,1.278,1.012,1.864,1.385a8.2,8.2,0,0,0,1.864.8,6.427,6.427,0,0,0,3.995-.213,8.547,8.547,0,0,1,3.036-.8,4.03,4.03,0,0,1,2.876.692Z" transform="translate(-78.519 0)" fill="#dc4226"/>
    <path id="Path_3466" data-name="Path 3466" d="M172.91,22.716c2.184-.107,3.995-2.237,5.22-3.835,1.332-1.7,2.237-4.261,4.314-5.22,3.089-1.385,6.338-.213,9.161,1.278a11.387,11.387,0,0,0,9.055-.053c2.929-1.278,5.166-3.462,7.67-5.326a10.207,10.207,0,0,1,9-2.024l1.6-1.917.32,3.142,5.646,5.7-1.119,1.332h-3.622v-.905a4.984,4.984,0,0,0-3.515-1.119c-1.385.16-2.876.8-2.663,2.45.16,1.119,1.758,2.13,2.557,2.716,1.119.746,2.29,1.438,3.462,2.184a77.508,77.508,0,0,1,6.924,4.9,33.115,33.115,0,0,1,5.806,5.433l-4.9-.959c.905-.639-.16-1.332-.746-1.811a17.823,17.823,0,0,0-2.344-1.545,20.233,20.233,0,0,0-5.22-1.811c-3.462-.852-7.936-1.385-10.972.8-.107.053-.213.16-.32.213l-1.7-1.438a20.919,20.919,0,0,1-16.671-1.385c-2.077,1.438-4.474,1.758-6.871,2.024a34.53,34.53,0,0,1-7.031-.107c-5.593,4.634-13.209,7.35-20.346,4.9l4.794-1.225v1.065C165.56,30.173,169.874,26.551,172.91,22.716Z" transform="translate(-72.724 -2.626)" fill="#dc4226"/>
  </g>
</svg>
